HIERARCHY
ROOT Hips
{
  OFFSET -4.35178 90.3298 111.633
  CHANNELS 6 Xposition Yposition Zposition Zrotation Xrotation Yrotation
  JOINT LeftUpLeg
  {
    OFFSET 0.103456 1.85784 10.5485
    CHANNELS 6 Xposition Yposition Zposition Zrotation Xrotation Yrotation
    JOINT LeftLeg
    {
      OFFSET 43.5 -4.2e-05 0
      CHANNELS 6 Xposition Yposition Zposition Zrotation Xrotation Yrotation
      JOINT LeftFoot
      {
        OFFSET 42.3722 1.9e-05 0
        CHANNELS 6 Xposition Yposition Zposition Zrotation Xrotation Yrotation
        JOINT LeftToe
        {
          OFFSET 17.3 0 0
          CHANNELS 6 Xposition Yposition Zposition Zrotation Xrotation Yrotation
          End Site
          {
            OFFSET 0 0 0
          }
        }
      }
    }
  }
  JOINT RightUpLeg
  {
    OFFSET 0.103456 1.85782 -10.5485
    CHANNELS 6 Xposition Yposition Zposition Zrotation Xrotation Yrotation
    JOINT RightLeg
    {
      OFFSET 43.5 -2.7e-05 0
      CHANNELS 6 Xposition Yposition Zposition Zrotation Xrotation Yrotation
      JOINT RightFoot
      {
        OFFSET 42.3723 0 0
        CHANNELS 6 Xposition Yposition Zposition Zrotation Xrotation Yrotation
        JOINT RightToe
        {
          OFFSET 17.3 0 1.7e-05
          CHANNELS 6 Xposition Yposition Zposition Zrotation Xrotation Yrotation
          End Site
          {
            OFFSET 0 0 0
          }
        }
      }
    }
  }
  JOINT Spine
  {
    OFFSET 6.90197 -2.60373 0
    CHANNELS 6 Xposition Yposition Zposition Zrotation Xrotation Yrotation
    JOINT Spine1
    {
      OFFSET 12.5881 0 0
      CHANNELS 6 Xposition Yposition Zposition Zrotation Xrotation Yrotation
      JOINT Spine2
      {
        OFFSET 12.3432 -1.8e-05 0
        CHANNELS 6 Xposition Yposition Zposition Zrotation Xrotation Yrotation
        JOINT Neck
        {
          OFFSET 25.8329 2.3e-05 0
          CHANNELS 6 Xposition Yposition Zposition Zrotation Xrotation Yrotation
          JOINT Head
          {
            OFFSET 11.7666 0 0
            CHANNELS 6 Xposition Yposition Zposition Zrotation Xrotation Yrotation
            End Site
            {
              OFFSET 0 0 0
            }
          }
        }
        JOINT LeftShoulder
        {
          OFFSET 19.7459 -1.48035 6.0001
          CHANNELS 6 Xposition Yposition Zposition Zrotation Xrotation Yrotation
          JOINT LeftArm
          {
            OFFSET 11.2841 1.8e-05 -2e-05
            CHANNELS 6 Xposition Yposition Zposition Zrotation Xrotation Yrotation
            JOINT LeftForeArm
            {
              OFFSET 33 -1.3e-05 1.9e-05
              CHANNELS 6 Xposition Yposition Zposition Zrotation Xrotation Yrotation
              JOINT LeftHand
              {
                OFFSET 25.2 3.2e-05 1.1e-05
                CHANNELS 6 Xposition Yposition Zposition Zrotation Xrotation Yrotation
                End Site
                {
                  OFFSET 0 0 0
                }
              }
            }
          }
        }
        JOINT RightShoulder
        {
          OFFSET 19.7461 -1.48036 -6.00008
          CHANNELS 6 Xposition Yposition Zposition Zrotation Xrotation Yrotation
          JOINT RightArm
          {
            OFFSET 11.2841 0 0
            CHANNELS 6 Xposition Yposition Zposition Zrotation Xrotation Yrotation
            JOINT RightForeArm
            {
              OFFSET 33.0001 1.6e-05 0
              CHANNELS 6 Xposition Yposition Zposition Zrotation Xrotation Yrotation
              JOINT RightHand
              {
                OFFSET 25.1998 0.000123 0.000432
                CHANNELS 6 Xposition Yposition Zposition Zrotation Xrotation Yrotation
                End Site
                {
                  OFFSET 0 0 0
                }
              }
            }
          }
        }
      }
    }
  }
}
MOTION
Frames:	11
Frame Time:	0.0333333
-4.35178 90.3298 111.633 -50.1558 -81.6198 -137.577 0.103456 1.85784 10.5485 11.4209 3.192 179.609 43.5 -4.2e-05 1e-05 -6.45414 -7.10072 -2.78815 42.3722 1.9e-05 3.55271e-15 75.8866 -3.0319 -0.0739877 17.3 7.10543e-15 3e-06 21.4546 -1e-06 0.003093 0.103456 1.85782 -10.5485 3.68942 -2.12524 174.167 43.5 -2.7e-05 4e-06 -18.0743 7.91738 2.31183 42.3723 -1.42109e-14 1e-05 82.328 7.86669 -1.93805 17.3 -6e-06 1.7e-05 21.4546 -1.9e-05 -0.003116 6.90197 -2.60373 -3e-06 7.05573 -0.260612 -0.305034 12.5881 1e-05 8e-06 4.10324 -0.493926 -0.5507 12.3432 -1.8e-05 -5e-06 3.79406 -0.467413 -0.508997 25.8329 2.3e-05 7e-06 5.77926 0.563482 -10.0149 11.7666 -8e-06 -6e-06 -26.5257 -2.06556 11.6814 19.7459 -1.48035 6.0001 -177.4 4.78748 -93.4448 11.2841 1.8e-05 -2e-05 28.1661 -19.498 18.6881 33 -1.3e-05 1.9e-05 -33.8253 -3.15897 -17.5641 25.2 3.2e-05 1.1e-05 13.1497 28.1984 -4.93948 19.7461 -1.48036 -6.00008 178.141 4.86315 93.6043 11.2841 0 -1e-06 -9.32717 11.9552 -7.70047 33.0001 1.6e-05 -1e-06 -18.0588 -0.497012 15.003 25.1998 0.000123 0.000432 9.37647 -14.2332 3.60698 
-4.35071 90.3279 111.651 -50.1558 -81.6198 -137.577 0.103456 1.85784 10.5485 11.374 3.21303 179.609 43.5 -4.2e-05 1e-05 -6.4618 -7.09535 -2.7902 42.3722 1.9e-05 3.55271e-15 75.867 -3.02306 -0.0739871 17.3 0 3e-06 21.4546 -1e-06 0.003093 0.103456 1.85782 -10.5485 3.67744 -2.11291 174.167 43.5 -2.7e-05 4e-06 -18.007 7.90721 2.31177 42.3723 1.42109e-14 1e-05 82.2905 7.87489 -1.93809 17.3 -6e-06 1.7e-05 21.4546 -1.9e-05 -0.003116 6.90197 -2.60373 -3e-06 7.05573 -0.260612 -0.305034 12.5881 1e-05 8e-06 4.10324 -0.493926 -0.5507 12.3432 -1.8e-05 -5e-06 3.79406 -0.467413 -0.508997 25.8329 2.3e-05 7e-06 5.7925 0.581013 -10.0124 11.7666 -8e-06 -6e-06 -26.493 -2.06069 11.7067 19.7459 -1.48035 6.0001 -177.391 4.81638 -93.4681 11.2841 1.8e-05 -2e-05 28.2063 -19.535 18.7892 33 -1.3e-05 1.9e-05 -33.8082 -3.14628 -17.5684 25.2 3.2e-05 1.1e-05 13.1405 28.1993 -4.91308 19.7461 -1.48036 -6.00008 178.156 4.82582 93.6105 11.2841 -1.42109e-14 -1e-06 -9.30114 12.0526 -7.76235 33.0001 1.6e-05 -1e-06 -18.0969 -0.509648 15.031 25.1998 0.000123 0.000432 9.36431 -14.2323 3.61081 
-4.35206 90.326 111.73 -50.2026 -81.6204 -137.618 0.103456 1.85784 10.5485 11.2996 3.2657 179.606 43.5 -4.2e-05 1e-05 -6.48676 -7.07033 -2.79936 42.3722 1.9e-05 0 75.82 -2.97817 -0.073984 17.3 -7.10543e-15 3e-06 21.4546 -1e-06 0.003093 0.103456 1.85782 -10.5485 3.65089 -2.09045 174.152 43.5 -2.7e-05 4e-06 -17.9366 7.88743 2.31957 42.3723 0 1e-05 82.2379 7.89838 -1.9382 17.3 -6e-06 1.7e-05 21.4546 -1.9e-05 -0.003116 6.90197 -2.60373 -3e-06 7.05752 -0.260612 -0.305034 12.5881 1e-05 8e-06 4.10682 -0.497058 -0.550701 12.3432 -1.8e-05 -5e-06 3.79771 -0.470635 -0.508997 25.8329 2.3e-05 7e-06 5.7897 0.578724 -9.99164 11.7666 -8e-06 -6e-06 -26.4244 -2.08358 11.7133 19.7459 -1.48035 6.0001 -177.376 4.83549 -93.4739 11.2841 1.8e-05 -2e-05 28.2178 -19.5461 18.8734 33 -1.3e-05 1.9e-05 -33.7685 -3.10349 -17.5783 25.2 3.2e-05 1.1e-05 13.1411 28.1986 -4.88828 19.7461 -1.48036 -6.00008 178.194 4.78564 93.6139 11.2841 1.42109e-14 -1e-06 -9.28591 12.0924 -7.80899 33.0001 1.6e-05 -1e-06 -18.1449 -0.508403 15.039 25.1998 0.000123 0.000432 9.32626 -14.2015 3.57404 
-4.35274 90.3238 111.814 -50.3181 -81.6207 -137.73 0.103456 1.85784 10.5485 11.2169 3.30154 179.591 43.5 -4.2e-05 1e-05 -6.51059 -7.04975 -2.80451 42.3722 1.9e-05 0 75.7734 -2.93196 -0.0739809 17.3 7.10543e-15 3e-06 21.4546 -1e-06 0.003093 0.103456 1.85782 -10.5485 3.61648 -2.04954 174.13 43.5 -2.7e-05 4e-06 -17.8528 7.85641 2.32691 42.3723 1.42109e-14 1e-05 82.1672 7.95053 -1.92605 17.3 -6e-06 1.7e-05 21.4546 -1.9e-05 -0.003116 6.90197 -2.60373 -3e-06 7.06492 -0.260612 -0.301615 12.5881 1e-05 8e-06 4.12158 -0.500636 -0.543891 12.3432 -1.8e-05 -5e-06 3.81243 -0.474081 -0.502261 25.8329 2.3e-05 7e-06 5.77826 0.553567 -9.97084 11.7666 -8e-06 -6e-06 -26.358 -2.10974 11.71 19.7459 -1.48035 6.0001 -177.346 4.84727 -93.4655 11.2841 1.8e-05 -2e-05 28.2467 -19.5432 19.0239 33 -1.3e-05 1.9e-05 -33.7377 -3.0152 -17.6136 25.2 3.2e-05 1.1e-05 13.0824 28.2294 -4.89609 19.7461 -1.48036 -6.00008 178.219 4.74783 93.6106 11.2841 0 -1e-06 -9.28259 12.0849 -7.8008 33.0001 1.6e-05 -1e-06 -18.23 -0.506106 15.0599 25.1998 0.000123 0.000432 9.30084 -14.1907 3.57124 
-4.39691 90.3222 111.907 -50.5206 -81.6215 -137.926 0.103456 1.85784 10.5485 11.1206 3.33087 179.571 43.5 -4.2e-05 1e-05 -6.52541 -7.04522 -2.80229 42.3722 1.9e-05 3.55271e-15 75.7369 -2.9213 -0.0854358 17.3 7.10543e-15 3e-06 21.4546 -1e-06 0.003093 0.103456 1.85782 -10.5485 3.56445 -2.04646 174.095 43.5 -2.7e-05 4e-06 -17.7785 7.82973 2.33802 42.3723 -1.42109e-14 1e-05 82.1154 7.96463 -1.91671 17.3 -6e-06 1.7e-05 21.4546 -1.9e-05 -0.003116 6.90197 -2.60373 -3e-06 7.08406 -0.260613 -0.294151 12.5881 1e-05 8e-06 4.15984 -0.504594 -0.528697 12.3432 -1.8e-05 -5e-06 3.85062 -0.477852 -0.486999 25.8329 2.3e-05 7e-06 5.7234 0.51649 -9.95054 11.7666 -8e-06 -6e-06 -26.3415 -2.15542 11.6791 19.7459 -1.48035 6.0001 -177.305 4.83889 -93.4308 11.2841 1.8e-05 -2e-05 28.2381 -19.5063 19.2472 33 -1.3e-05 1.9e-05 -33.6991 -2.83943 -17.6816 25.2 3.2e-05 1.1e-05 12.9249 28.2936 -4.91233 19.7461 -1.48036 -6.00008 178.245 4.73084 93.5526 11.2841 0 -1e-06 -9.20508 12.0053 -7.78473 33.0001 1.6e-05 -1e-06 -18.5357 -0.437681 15.1505 25.1998 0.000123 0.000432 9.27141 -14.1548 3.5829 
-4.45664 90.3244 112.008 -50.81 -81.6255 -138.166 0.103456 1.85784 10.5485 11.0311 3.34728 179.49 43.5 -4.2e-05 1e-05 -6.5293 -7.0371 -2.79285 42.3722 1.9e-05 0 75.7387 -2.92995 -0.119352 17.3 0 3e-06 21.4546 -1e-06 0.003093 0.103456 1.85782 -10.5485 3.40474 -1.98166 174.004 43.5 -2.7e-05 4e-06 -17.8892 7.81829 2.34293 42.3723 -1.42109e-14 1e-05 82.159 8.00929 -1.91228 17.3 -6e-06 1.7e-05 21.4546 -1.9e-05 -0.003116 6.90197 -2.60373 -3e-06 7.12087 -0.260612 -0.317476 12.5881 1e-05 8e-06 4.23347 -0.507426 -0.574867 12.3432 -1.8e-05 -5e-06 3.92446 -0.480178 -0.532716 25.8329 2.3e-05 7e-06 5.59383 0.590932 -10.0219 11.7666 -8e-06 -6e-06 -26.3419 -2.13246 11.7973 19.7459 -1.48035 6.0001 -177.109 4.88861 -93.0417 11.2841 1.8e-05 -2e-05 28.2091 -19.1281 18.8212 33 -1.3e-05 1.9e-05 -34.1456 -3.18843 -17.3162 25.2 3.2e-05 1.1e-05 12.9207 28.1947 -5.11074 19.7461 -1.48036 -6.00008 178.202 4.79794 93.3762 11.2841 0 -1e-06 -9.18335 12.0542 -7.96331 33.0001 1.6e-05 -1e-06 -19.0495 -0.611029 15.3639 25.1998 0.000123 0.000432 9.18335 -14.212 3.60171 
-4.52009 90.3312 112.127 -51.2942 -81.5766 -138.628 0.103456 1.85784 10.5485 10.9182 3.39566 179.43 43.5 -4.2e-05 1e-05 -6.57384 -7.02678 -2.78434 42.3722 1.9e-05 7.10543e-15 75.7312 -2.92687 -0.10807 17.3 0 3e-06 21.4546 -1e-06 0.003093 0.103456 1.85782 -10.5485 3.13826 -1.86618 173.945 43.5 -2.7e-05 4e-06 -18.2004 7.79566 2.3437 42.3723 1.42109e-14 1e-05 82.196 8.01727 -1.92978 17.3 -6e-06 1.7e-05 21.4546 -1.9e-05 -0.003116 6.90197 -2.60373 -3e-06 7.17287 -0.260612 -0.318566 12.5881 1e-05 8e-06 4.33758 -0.507644 -0.576075 12.3432 -1.8e-05 -5e-06 4.02869 -0.479301 -0.53325 25.8329 2.3e-05 7e-06 5.45592 0.619081 -10.0169 11.7666 -8e-06 -6e-06 -26.2455 -2.13399 11.8165 19.7459 -1.48035 6.0001 -177.085 4.92517 -92.9193 11.2841 1.8e-05 -2e-05 28.3324 -19.143 19.1883 33 -1.3e-05 1.9e-05 -34.2255 -3.14008 -17.2725 25.2 3.2e-05 1.1e-05 12.7579 28.1809 -5.07176 19.7461 -1.48036 -6.00008 178.325 4.75909 93.0988 11.2841 -2.84217e-14 -1e-06 -9.06752 11.8004 -8.09409 33.0001 1.6e-05 -1e-06 -20.0483 -0.68463 15.6216 25.1998 0.000123 0.000432 8.87524 -14.1198 3.50616 
-4.5729 90.3379 112.267 -52.1034 -81.481 -139.443 0.103456 1.85784 10.5485 10.7979 3.41594 179.383 43.5 -4.2e-05 1e-05 -6.60031 -7.05529 -2.77206 42.3722 1.9e-05 0 75.7025 -2.91649 -0.00396387 17.3 0 3e-06 21.4546 -1e-06 0.003093 0.103456 1.85782 -10.5485 2.85555 -1.7894 173.939 43.5 -2.7e-05 4e-06 -18.4516 7.75914 2.32495 42.3723 0 1e-05 82.1589 7.91567 -1.96106 17.3 -6e-06 1.7e-05 21.4546 -1.9e-05 -0.003116 6.90197 -2.60373 -3e-06 7.22898 -0.258654 -0.31232 12.5881 1e-05 8e-06 4.44974 -0.501817 -0.563468 12.3432 -1.8e-05 -5e-06 4.1407 -0.470999 -0.520849 25.8329 2.3e-05 7e-06 5.30816 0.610136 -9.98233 11.7666 -8e-06 -6e-06 -26.0332 -2.1567 11.7905 19.7459 -1.48035 6.0001 -177.168 4.98717 -92.8463 11.2841 1.8e-05 -2e-05 28.4566 -19.3144 19.8293 33 -1.3e-05 1.9e-05 -34.0187 -2.99268 -17.4093 25.2 3.2e-05 1.1e-05 12.5995 28.1745 -5.01081 19.7461 -1.48036 -6.00008 178.535 4.6754 92.7678 11.2841 -2.84217e-14 -1e-06 -9.00612 11.439 -8.35354 33.0001 1.6e-05 -1e-06 -21.0455 -0.773995 15.7877 25.1998 0.000123 0.000432 8.30958 -13.8795 3.22761 
-4.62776 90.342 112.402 -52.8556 -81.377 -140.215 0.103456 1.85784 10.5485 10.7123 3.49923 179.352 43.5 -4.2e-05 1e-05 -6.59109 -7.10589 -2.77895 42.3722 1.9e-05 0 75.6601 -2.86324 0.0697506 17.3 0 3e-06 21.4546 -1e-06 0.003093 0.103456 1.85782 -10.5485 2.64781 -1.76666 173.941 43.5 -2.7e-05 4e-06 -18.5778 7.71414 2.30885 42.3723 0 1e-05 82.107 7.80161 -1.98103 17.3 -6e-06 1.7e-05 21.4546 -1.9e-05 -0.003116 6.90197 -2.60373 -3e-06 7.3151 -0.247279 -0.305541 12.5881 1e-05 8e-06 4.62177 -0.476615 -0.550909 12.3432 -1.8e-05 -5e-06 4.31229 -0.442481 -0.509589 25.8329 2.3e-05 7e-06 4.98747 0.52668 -9.87033 11.7666 -8e-06 -6e-06 -25.6163 -2.2502 11.7072 19.7459 -1.48035 6.0001 -177.215 5.00647 -92.6171 11.2841 1.8e-05 -2e-05 28.2634 -19.2722 20.348 33 -1.3e-05 1.9e-05 -33.8004 -2.81204 -17.4533 25.2 3.2e-05 1.1e-05 12.406 28.1996 -4.93064 19.7461 -1.48036 -6.00008 178.962 4.60463 92.194 11.2841 0 -1e-06 -9.15948 10.0585 -8.29832 33.0001 1.6e-05 -1e-06 -22.1165 -0.774851 15.7344 25.1998 0.000123 0.000432 8.09543 -13.6462 2.85906 
-4.69904 90.3468 112.554 -53.8676 -81.2498 -141.259 0.103456 1.85784 10.5485 10.5951 3.53484 179.336 43.5 -4.2e-05 1e-05 -6.59925 -7.1665 -2.79359 42.3722 1.9e-05 0 75.6883 -2.90784 0.126135 17.3 0 3e-06 21.4546 -1e-06 0.003093 0.103456 1.85782 -10.5485 2.40665 -1.79281 173.913 43.5 -2.7e-05 4e-06 -18.6733 7.62546 2.31618 42.3723 -1.42109e-14 1e-05 82.0552 7.73596 -1.89044 17.3 -6e-06 1.7e-05 21.4546 -1.9e-05 -0.003116 6.90197 -2.60373 -3e-06 7.40865 -0.232349 -0.281781 12.5881 1e-05 8e-06 4.80857 -0.441723 -0.504978 12.3432 -1.8e-05 -5e-06 4.49839 -0.402005 -0.465592 25.8329 2.3e-05 7e-06 4.62387 0.379797 -9.77138 11.7666 -8e-06 -6e-06 -25.1345 -2.38969 11.5695 19.7459 -1.48035 6.0001 -177.332 4.99973 -92.3222 11.2841 1.8e-05 -2e-05 27.9403 -19.251 21.0596 33 -1.3e-05 1.9e-05 -33.4697 -2.53145 -17.5709 25.2 3.2e-05 1.1e-05 12.1826 28.2442 -4.80417 19.7461 -1.48036 -6.00008 179.49 4.52861 91.2816 11.2841 0 -1e-06 -9.773 7.97958 -7.82433 33.0001 1.6e-05 -1e-06 -22.8821 -1.80555 15.7042 25.1998 0.000123 0.000432 7.69831 -14.1021 2.76599 
-4.77918 90.3563 112.728 -54.9638 -81.094 -142.423 0.103456 1.85784 10.5485 10.4419 3.47475 179.371 43.5 -4.2e-05 1e-05 -6.68471 -7.24138 -2.83329 42.3722 1.9e-05 7.10543e-15 75.8288 -3.03874 0.192314 17.3 -7.10543e-15 3e-06 21.4546 -1e-06 0.003093 0.103456 1.85782 -10.5485 2.07854 -1.92099 173.896 43.5 -2.7e-05 4e-06 -18.9063 7.49434 2.30962 42.3723 1.42109e-14 1e-05 82.0743 7.63015 -1.71501 17.3 -6e-06 1.7e-05 21.4546 -1.9e-05 -0.003116 6.90197 -2.60373 -3e-06 7.53379 -0.176803 -0.243071 12.5881 1e-05 8e-06 5.05771 -0.323033 -0.434959 12.3432 -1.8e-05 -5e-06 4.74544 -0.27545 -0.402682 25.8329 2.3e-05 7e-06 4.10431 0.203831 -9.63073 11.7666 -8e-06 -6e-06 -24.655 -2.57445 11.388 19.7459 -1.48035 6.0001 -177.415 4.84107 -91.7547 11.2841 1.8e-05 -2e-05 26.9599 -18.8607 21.6722 33 -1.3e-05 1.9e-05 -33.4532 -2.25768 -17.5139 25.2 3.2e-05 1.1e-05 11.9312 28.3529 -5.00938 19.7461 -1.48036 -6.00008 -179.973 4.53136 90.1095 11.2841 0 -1e-06 -10.2946 5.26318 -7.18898 33.0001 1.6e-05 -1e-06 -24.3096 -2.76342 15.7336 25.1998 0.000123 0.000432 6.97791 -14.4491 2.64571 
